<svg width="155" height="46" viewBox="0 0 155 46" fill="none" xmlns="http://www.w3.org/2000/svg">
<rect width="155" height="46" rx="23" fill="url(#paint0_linear_2_31)"/>
<path d="M29.856 29L34.848 17.8H37.408L42.416 29H39.696L35.6 19.112H36.624L32.512 29H29.856ZM32.352 26.6L33.04 24.632H38.8L39.504 26.6H32.352ZM47.0199 29.128C46.2092 29.128 45.4785 28.9467 44.8279 28.584C44.1772 28.2107 43.6599 27.6933 43.2759 27.032C42.9025 26.3707 42.7159 25.592 42.7159 24.696C42.7159 23.7893 42.9025 23.0053 43.2759 22.344C43.6599 21.6827 44.1772 21.1707 44.8279 20.808C45.4785 20.4453 46.2092 20.264 47.0199 20.264C47.7452 20.264 48.3799 20.424 48.9239 20.744C49.4679 21.064 49.8892 21.5493 50.1879 22.2C50.4865 22.8507 50.6359 23.6827 50.6359 24.696C50.6359 25.6987 50.4919 26.5307 50.2039 27.192C49.9159 27.8427 49.4999 28.328 48.9559 28.648C48.4225 28.968 47.7772 29.128 47.0199 29.128ZM47.4519 27.08C47.8572 27.08 48.2252 26.984 48.5559 26.792C48.8865 26.6 49.1479 26.328 49.3399 25.976C49.5425 25.6133 49.6439 25.1867 49.6439 24.696C49.6439 24.1947 49.5425 23.768 49.3399 23.416C49.1479 23.064 48.8865 22.792 48.5559 22.6C48.2252 22.408 47.8572 22.312 47.4519 22.312C47.0359 22.312 46.6625 22.408 46.3319 22.6C46.0012 22.792 45.7345 23.064 45.5319 23.416C45.3399 23.768 45.2439 24.1947 45.2439 24.696C45.2439 25.1867 45.3399 25.6133 45.5319 25.976C45.7345 26.328 46.0012 26.6 46.3319 26.792C46.6625 26.984 47.0359 27.08 47.4519 27.08ZM49.7079 29V27.24L49.7559 24.68L49.5959 22.136V17.128H52.0919V29H49.7079ZM58.098 29.128C57.2873 29.128 56.5567 28.9467 55.906 28.584C55.2553 28.2107 54.738 27.6933 54.354 27.032C53.9807 26.3707 53.794 25.592 53.794 24.696C53.794 23.7893 53.9807 23.0053 54.354 22.344C54.738 21.6827 55.2553 21.1707 55.906 20.808C56.5567 20.4453 57.2873 20.264 58.098 20.264C58.8233 20.264 59.458 20.424 60.002 20.744C60.546 21.064 60.9673 21.5493 61.266 22.2C61.5647 22.8507 61.714 23.6827 61.714 24.696C61.714 25.6987 61.57 26.5307 61.282 27.192C60.994 27.8427 60.578 28.328 60.034 28.648C59.5007 28.968 58.8553 29.128 58.098 29.128ZM58.53 27.08C58.9353 27.08 59.3033 26.984 59.634 26.792C59.9647 26.6 60.226 26.328 60.418 25.976C60.6207 25.6133 60.722 25.1867 60.722 24.696C60.722 24.1947 60.6207 23.768 60.418 23.416C60.226 23.064 59.9647 22.792 59.634 22.6C59.3033 22.408 58.9353 22.312 58.53 22.312C58.114 22.312 57.7407 22.408 57.41 22.6C57.0793 22.792 56.8127 23.064 56.61 23.416C56.418 23.768 56.322 24.1947 56.322 24.696C56.322 25.1867 56.418 25.6133 56.61 25.976C56.8127 26.328 57.0793 26.6 57.41 26.792C57.7407 26.984 58.114 27.08 58.53 27.08ZM60.786 29V27.24L60.834 24.68L60.674 22.136V17.128H63.17V29H60.786ZM73.5314 29.128C72.518 29.128 71.7287 28.872 71.1634 28.36C70.598 27.8373 70.3154 27.064 70.3154 26.04V18.488H72.8114V26.008C72.8114 26.3707 72.9074 26.6533 73.0994 26.856C73.2914 27.048 73.5527 27.144 73.8834 27.144C74.278 27.144 74.614 27.0373 74.8914 26.824L75.5634 28.584C75.3074 28.7653 74.998 28.904 74.6354 29C74.2834 29.0853 73.9154 29.128 73.5314 29.128ZM68.9874 22.504V20.584H74.9554V22.504H68.9874ZM80.7949 29.128C79.8775 29.128 79.0615 28.936 78.3469 28.552C77.6429 28.168 77.0829 27.6453 76.6669 26.984C76.2615 26.312 76.0589 25.5493 76.0589 24.696C76.0589 23.832 76.2615 23.0693 76.6669 22.408C77.0829 21.736 77.6429 21.2133 78.3469 20.84C79.0615 20.456 79.8775 20.264 80.7949 20.264C81.7015 20.264 82.5122 20.456 83.2269 20.84C83.9415 21.2133 84.5015 21.7307 84.9069 22.392C85.3122 23.0533 85.5149 23.8213 85.5149 24.696C85.5149 25.5493 85.3122 26.312 84.9069 26.984C84.5015 27.6453 83.9415 28.168 83.2269 28.552C82.5122 28.936 81.7015 29.128 80.7949 29.128ZM80.7949 27.08C81.2109 27.08 81.5842 26.984 81.9149 26.792C82.2455 26.6 82.5069 26.328 82.6989 25.976C82.8909 25.6133 82.9869 25.1867 82.9869 24.696C82.9869 24.1947 82.8909 23.768 82.6989 23.416C82.5069 23.064 82.2455 22.792 81.9149 22.6C81.5842 22.408 81.2109 22.312 80.7949 22.312C80.3789 22.312 80.0055 22.408 79.6749 22.6C79.3442 22.792 79.0775 23.064 78.8749 23.416C78.6829 23.768 78.5869 24.1947 78.5869 24.696C78.5869 25.1867 78.6829 25.6133 78.8749 25.976C79.0775 26.328 79.3442 26.6 79.6749 26.792C80.0055 26.984 80.3789 27.08 80.7949 27.08ZM95.8745 29.128C94.9465 29.128 94.1198 28.9413 93.3945 28.568C92.6692 28.184 92.0985 27.656 91.6825 26.984C91.2772 26.312 91.0745 25.5493 91.0745 24.696C91.0745 23.832 91.2772 23.0693 91.6825 22.408C92.0985 21.736 92.6692 21.2133 93.3945 20.84C94.1198 20.456 94.9465 20.264 95.8745 20.264C96.7812 20.264 97.5705 20.456 98.2425 20.84C98.9145 21.2133 99.4105 21.752 99.7305 22.456L97.7945 23.496C97.5705 23.0907 97.2878 22.792 96.9465 22.6C96.6158 22.408 96.2532 22.312 95.8585 22.312C95.4318 22.312 95.0478 22.408 94.7065 22.6C94.3652 22.792 94.0932 23.064 93.8905 23.416C93.6985 23.768 93.6025 24.1947 93.6025 24.696C93.6025 25.1973 93.6985 25.624 93.8905 25.976C94.0932 26.328 94.3652 26.6 94.7065 26.792C95.0478 26.984 95.4318 27.08 95.8585 27.08C96.2532 27.08 96.6158 26.9893 96.9465 26.808C97.2878 26.616 97.5705 26.312 97.7945 25.896L99.7305 26.952C99.4105 27.6453 98.9145 28.184 98.2425 28.568C97.5705 28.9413 96.7812 29.128 95.8745 29.128ZM106.448 29V27.32L106.288 26.952V23.944C106.288 23.4107 106.122 22.9947 105.792 22.696C105.472 22.3973 104.976 22.248 104.304 22.248C103.845 22.248 103.392 22.3227 102.944 22.472C102.506 22.6107 102.133 22.8027 101.824 23.048L100.928 21.304C101.397 20.9733 101.962 20.7173 102.624 20.536C103.285 20.3547 103.957 20.264 104.64 20.264C105.952 20.264 106.97 20.5733 107.696 21.192C108.421 21.8107 108.784 22.776 108.784 24.088V29H106.448ZM103.824 29.128C103.152 29.128 102.576 29.016 102.096 28.792C101.616 28.5573 101.248 28.2427 100.992 27.848C100.736 27.4533 100.608 27.0107 100.608 26.52C100.608 26.008 100.73 25.56 100.976 25.176C101.232 24.792 101.632 24.4933 102.176 24.28C102.72 24.056 103.429 23.944 104.304 23.944H106.592V25.4H104.576C103.989 25.4 103.584 25.496 103.36 25.688C103.146 25.88 103.04 26.12 103.04 26.408C103.04 26.728 103.162 26.984 103.408 27.176C103.664 27.3573 104.01 27.448 104.448 27.448C104.864 27.448 105.237 27.352 105.568 27.16C105.898 26.9573 106.138 26.664 106.288 26.28L106.672 27.432C106.49 27.9867 106.16 28.408 105.68 28.696C105.2 28.984 104.581 29.128 103.824 29.128ZM111.043 29V20.392H113.427V22.824L113.091 22.12C113.347 21.512 113.757 21.0533 114.323 20.744C114.888 20.424 115.576 20.264 116.387 20.264V22.568C116.28 22.5573 116.184 22.552 116.099 22.552C116.013 22.5413 115.923 22.536 115.827 22.536C115.144 22.536 114.589 22.7333 114.163 23.128C113.747 23.512 113.539 24.1147 113.539 24.936V29H111.043ZM121.688 29.128C120.674 29.128 119.885 28.872 119.32 28.36C118.754 27.8373 118.472 27.064 118.472 26.04V18.488H120.968V26.008C120.968 26.3707 121.064 26.6533 121.256 26.856C121.448 27.048 121.709 27.144 122.04 27.144C122.434 27.144 122.77 27.0373 123.048 26.824L123.72 28.584C123.464 28.7653 123.154 28.904 122.792 29C122.44 29.0853 122.072 29.128 121.688 29.128ZM117.144 22.504V20.584H123.112V22.504H117.144Z" fill="white"/>
<defs>
<linearGradient id="paint0_linear_2_31" x1="77.5" y1="0" x2="77.5" y2="46" gradientUnits="userSpaceOnUse">
<stop stop-color="white"/>
<stop offset="1" stop-color="#605955"/>
</linearGradient>
</defs>
</svg>
