<svg width="28" height="28" viewBox="0 0 28 28" fill="none" xmlns="http://www.w3.org/2000/svg">
<rect width="28" height="28" rx="4" fill="white"/>
<path d="M8.16669 21C6.88335 21 5.84502 22.05 5.84502 23.3333C5.84502 24.6167 6.88335 25.6667 8.16669 25.6667C9.45002 25.6667 10.5 24.6167 10.5 23.3333C10.5 22.05 9.45002 21 8.16669 21ZM1.16669 3.50001C1.16669 4.14168 1.69169 4.66668 2.33335 4.66668H3.50002L7.70002 13.5217L6.12502 16.3683C5.27335 17.9317 6.39335 19.8333 8.16669 19.8333H21C21.6417 19.8333 22.1667 19.3083 22.1667 18.6667C22.1667 18.025 21.6417 17.5 21 17.5H8.16669L9.45002 15.1667H18.1417C19.0167 15.1667 19.7867 14.6883 20.1834 13.965L24.36 6.39334C24.4583 6.21651 24.5088 6.01706 24.5064 5.81474C24.5039 5.61242 24.4487 5.41424 24.3462 5.23982C24.2436 5.06539 24.0973 4.92076 23.9217 4.82023C23.7462 4.71971 23.5474 4.66678 23.345 4.66668H6.07835L5.29669 2.99834C5.20292 2.7992 5.05437 2.63089 4.86841 2.51312C4.68246 2.39535 4.4668 2.33299 4.24669 2.33335H2.33335C1.69169 2.33335 1.16669 2.85835 1.16669 3.50001ZM19.8334 21C18.55 21 17.5117 22.05 17.5117 23.3333C17.5117 24.6167 18.55 25.6667 19.8334 25.6667C21.1167 25.6667 22.1667 24.6167 22.1667 23.3333C22.1667 22.05 21.1167 21 19.8334 21Z" fill="#020202"/>
</svg>
