<svg width="140" height="25" viewBox="0 0 140 25" fill="none" xmlns="http://www.w3.org/2000/svg">
<circle cx="32.5" cy="12.5" r="7.5" fill="#353538"/>
<circle cx="7.5" cy="12.5" r="7.5" fill="#D9D9D9"/>
<circle cx="57.5" cy="12.5" r="7.5" fill="#A41A1A"/>
<circle cx="82.5" cy="12.5" r="7.5" fill="#1A59B8"/>
<circle cx="107.5" cy="12.5" r="7.5" fill="#998621"/>
<circle cx="132.5" cy="12.5" r="7.5" fill="#17B91E"/>
<path d="M30.9375 13.9583L36.0417 8.85417C36.2327 8.6632 36.4757 8.56771 36.7709 8.56771C37.066 8.56771 37.309 8.6632 37.5 8.85417C37.691 9.04514 37.7865 9.2882 37.7865 9.58334C37.7865 9.87847 37.691 10.1215 37.5 10.3125L31.6667 16.1458C31.4584 16.3542 31.2153 16.4583 30.9375 16.4583C30.6597 16.4583 30.4167 16.3542 30.2084 16.1458L27.5 13.4375C27.309 13.2465 27.2136 13.0035 27.2136 12.7083C27.2136 12.4132 27.309 12.1701 27.5 11.9792C27.691 11.7882 27.934 11.6927 28.2292 11.6927C28.5243 11.6927 28.7674 11.7882 28.9584 11.9792L30.9375 13.9583Z" fill="white"/>
</svg>
