<svg width="106" height="25" viewBox="0 0 106 25" fill="none" xmlns="http://www.w3.org/2000/svg">
<path d="M17.7083 17.7083H7.29167V14.5833L3.125 18.75L7.29167 22.9167V19.7917H19.7917V13.5417H17.7083M7.29167 7.29168H17.7083V10.4167L21.875 6.25001L17.7083 2.08334V5.20834H5.20833V11.4583H7.29167V7.29168Z" fill="white"/>
<path d="M35.048 17.128C34.312 17.128 33.6027 17.0427 32.92 16.872C32.248 16.6907 31.7147 16.4667 31.32 16.2L32.152 14.408C32.5467 14.6533 33.0107 14.856 33.544 15.016C34.088 15.1653 34.6213 15.24 35.144 15.24C35.72 15.24 36.1253 15.1707 36.36 15.032C36.6053 14.8933 36.728 14.7013 36.728 14.456C36.728 14.2533 36.632 14.104 36.44 14.008C36.2587 13.9013 36.0133 13.8213 35.704 13.768C35.3947 13.7147 35.0533 13.6613 34.68 13.608C34.3173 13.5547 33.9493 13.4853 33.576 13.4C33.2027 13.304 32.8613 13.1653 32.552 12.984C32.2427 12.8027 31.992 12.5573 31.8 12.248C31.6187 11.9387 31.528 11.5387 31.528 11.048C31.528 10.504 31.6827 10.024 31.992 9.608C32.312 9.192 32.7707 8.86667 33.368 8.632C33.9653 8.38667 34.68 8.264 35.512 8.264C36.0987 8.264 36.696 8.328 37.304 8.456C37.912 8.584 38.4187 8.77067 38.824 9.016L37.992 10.792C37.576 10.5467 37.1547 10.3813 36.728 10.296C36.312 10.2 35.9067 10.152 35.512 10.152C34.9573 10.152 34.552 10.2267 34.296 10.376C34.04 10.5253 33.912 10.7173 33.912 10.952C33.912 11.1653 34.0027 11.3253 34.184 11.432C34.376 11.5387 34.6267 11.624 34.936 11.688C35.2453 11.752 35.5813 11.8107 35.944 11.864C36.3173 11.9067 36.6907 11.976 37.064 12.072C37.4373 12.168 37.7733 12.3067 38.072 12.488C38.3813 12.6587 38.632 12.8987 38.824 13.208C39.016 13.5067 39.112 13.9013 39.112 14.392C39.112 14.9253 38.952 15.4 38.632 15.816C38.312 16.2213 37.848 16.5413 37.24 16.776C36.6427 17.0107 35.912 17.128 35.048 17.128ZM44.924 17.128C43.9427 17.128 43.0787 16.936 42.332 16.552C41.596 16.168 41.0253 15.6453 40.62 14.984C40.2147 14.312 40.012 13.5493 40.012 12.696C40.012 11.832 40.2093 11.0693 40.604 10.408C41.0093 9.736 41.5587 9.21333 42.252 8.84C42.9453 8.456 43.7293 8.264 44.604 8.264C45.4467 8.264 46.204 8.44533 46.876 8.808C47.5587 9.16 48.0973 9.672 48.492 10.344C48.8867 11.0053 49.084 11.8 49.084 12.728C49.084 12.824 49.0787 12.936 49.068 13.064C49.0573 13.1813 49.0467 13.2933 49.036 13.4H42.044V11.944H47.724L46.764 12.376C46.764 11.928 46.6733 11.5387 46.492 11.208C46.3107 10.8773 46.06 10.6213 45.74 10.44C45.42 10.248 45.0467 10.152 44.62 10.152C44.1933 10.152 43.8147 10.248 43.484 10.44C43.164 10.6213 42.9133 10.8827 42.732 11.224C42.5507 11.5547 42.46 11.9493 42.46 12.408V12.792C42.46 13.2613 42.5613 13.6773 42.764 14.04C42.9773 14.392 43.2707 14.664 43.644 14.856C44.028 15.0373 44.476 15.128 44.988 15.128C45.4467 15.128 45.8467 15.0587 46.188 14.92C46.54 14.7813 46.86 14.5733 47.148 14.296L48.476 15.736C48.0813 16.184 47.5853 16.5307 46.988 16.776C46.3907 17.0107 45.7027 17.128 44.924 17.128ZM55.0178 17.128C54.0364 17.128 53.1724 16.936 52.4258 16.552C51.6898 16.168 51.1191 15.6453 50.7138 14.984C50.3084 14.312 50.1058 13.5493 50.1058 12.696C50.1058 11.832 50.3031 11.0693 50.6978 10.408C51.1031 9.736 51.6524 9.21333 52.3458 8.84C53.0391 8.456 53.8231 8.264 54.6978 8.264C55.5404 8.264 56.2978 8.44533 56.9698 8.808C57.6524 9.16 58.1911 9.672 58.5858 10.344C58.9804 11.0053 59.1778 11.8 59.1778 12.728C59.1778 12.824 59.1724 12.936 59.1618 13.064C59.1511 13.1813 59.1404 13.2933 59.1298 13.4H52.1378V11.944H57.8177L56.8578 12.376C56.8578 11.928 56.7671 11.5387 56.5858 11.208C56.4044 10.8773 56.1538 10.6213 55.8338 10.44C55.5138 10.248 55.1404 10.152 54.7138 10.152C54.2871 10.152 53.9084 10.248 53.5778 10.44C53.2578 10.6213 53.0071 10.8827 52.8258 11.224C52.6444 11.5547 52.5538 11.9493 52.5538 12.408V12.792C52.5538 13.2613 52.6551 13.6773 52.8578 14.04C53.0711 14.392 53.3644 14.664 53.7378 14.856C54.1218 15.0373 54.5698 15.128 55.0818 15.128C55.5404 15.128 55.9404 15.0587 56.2818 14.92C56.6338 14.7813 56.9538 14.5733 57.2418 14.296L58.5698 15.736C58.1751 16.184 57.6791 16.5307 57.0818 16.776C56.4844 17.0107 55.7964 17.128 55.0178 17.128ZM65.6748 17V8.2C65.6748 7.22933 65.9628 6.456 66.5388 5.88C67.1148 5.29333 67.9361 5 69.0028 5C69.3654 5 69.7121 5.03733 70.0428 5.112C70.3841 5.18667 70.6721 5.304 70.9068 5.464L70.2508 7.272C70.1121 7.176 69.9574 7.10133 69.7868 7.048C69.6161 6.99467 69.4348 6.968 69.2428 6.968C68.8801 6.968 68.5974 7.07467 68.3948 7.288C68.2028 7.49067 68.1068 7.8 68.1068 8.216V9.016L68.1708 10.088V17H65.6748ZM64.3468 10.504V8.584H70.3148V10.504H64.3468ZM71.6208 17V8.392H74.0048V10.824L73.6688 10.12C73.9248 9.512 74.3354 9.05333 74.9008 8.744C75.4661 8.424 76.1541 8.264 76.9648 8.264V10.568C76.8581 10.5573 76.7621 10.552 76.6768 10.552C76.5914 10.5413 76.5008 10.536 76.4048 10.536C75.7221 10.536 75.1674 10.7333 74.7408 11.128C74.3248 11.512 74.1168 12.1147 74.1168 12.936V17H71.6208ZM82.4824 17.128C81.565 17.128 80.749 16.936 80.0344 16.552C79.3304 16.168 78.7704 15.6453 78.3544 14.984C77.949 14.312 77.7464 13.5493 77.7464 12.696C77.7464 11.832 77.949 11.0693 78.3544 10.408C78.7704 9.736 79.3304 9.21333 80.0344 8.84C80.749 8.456 81.565 8.264 82.4824 8.264C83.389 8.264 84.1997 8.456 84.9144 8.84C85.629 9.21333 86.189 9.73067 86.5944 10.392C86.9997 11.0533 87.2024 11.8213 87.2024 12.696C87.2024 13.5493 86.9997 14.312 86.5944 14.984C86.189 15.6453 85.629 16.168 84.9144 16.552C84.1997 16.936 83.389 17.128 82.4824 17.128ZM82.4824 15.08C82.8984 15.08 83.2717 14.984 83.6024 14.792C83.933 14.6 84.1944 14.328 84.3864 13.976C84.5784 13.6133 84.6744 13.1867 84.6744 12.696C84.6744 12.1947 84.5784 11.768 84.3864 11.416C84.1944 11.064 83.933 10.792 83.6024 10.6C83.2717 10.408 82.8984 10.312 82.4824 10.312C82.0664 10.312 81.693 10.408 81.3624 10.6C81.0317 10.792 80.765 11.064 80.5624 11.416C80.3704 11.768 80.2744 12.1947 80.2744 12.696C80.2744 13.1867 80.3704 13.6133 80.5624 13.976C80.765 14.328 81.0317 14.6 81.3624 14.792C81.693 14.984 82.0664 15.08 82.4824 15.08ZM94.1028 8.264C94.7854 8.264 95.3934 8.40267 95.9268 8.68C96.4708 8.94667 96.8974 9.36267 97.2068 9.928C97.5161 10.4827 97.6708 11.1973 97.6708 12.072V17H95.1748V12.456C95.1748 11.7627 95.0201 11.2507 94.7108 10.92C94.4121 10.5893 93.9854 10.424 93.4308 10.424C93.0361 10.424 92.6788 10.5093 92.3588 10.68C92.0494 10.84 91.8041 11.0907 91.6228 11.432C91.4521 11.7733 91.3668 12.2107 91.3668 12.744V17H88.8708V8.392H91.2548V10.776L90.8068 10.056C91.1161 9.48 91.5588 9.03733 92.1348 8.728C92.7108 8.41867 93.3668 8.264 94.1028 8.264ZM103.453 17.128C102.44 17.128 101.651 16.872 101.085 16.36C100.52 15.8373 100.237 15.064 100.237 14.04V6.488H102.733V14.008C102.733 14.3707 102.829 14.6533 103.021 14.856C103.213 15.048 103.475 15.144 103.805 15.144C104.2 15.144 104.536 15.0373 104.813 14.824L105.485 16.584C105.229 16.7653 104.92 16.904 104.557 17C104.205 17.0853 103.837 17.128 103.453 17.128ZM98.9093 10.504V8.584H104.877V10.504H98.9093Z" fill="white"/>
</svg>
