<svg width="52" height="52" viewBox="0 0 52 52" fill="none" xmlns="http://www.w3.org/2000/svg">
<path d="M25.2416 31.7417C25.4583 31.9583 25.7111 32.0667 26 32.0667C26.2889 32.0667 26.5416 31.9583 26.7583 31.7417L32.825 25.675C33.15 25.35 33.2316 24.9622 33.0698 24.5115C32.908 24.0608 32.5736 23.8348 32.0666 23.8333H19.9333C19.4278 23.8333 19.0941 24.0594 18.9323 24.5115C18.7705 24.9636 18.8514 25.3515 19.175 25.675L25.2416 31.7417ZM26 47.6667C23.0028 47.6667 20.1861 47.0976 17.55 45.9593C14.9139 44.8211 12.6208 43.2777 10.6708 41.3292C8.72081 39.3792 7.17742 37.0861 6.04065 34.45C4.90387 31.8139 4.33476 28.9972 4.33331 26C4.33331 23.0028 4.90242 20.1861 6.04065 17.55C7.17887 14.9139 8.72226 12.6208 10.6708 10.6708C12.6208 8.72084 14.9139 7.17745 17.55 6.04068C20.1861 4.9039 23.0028 4.33479 26 4.33334C28.9972 4.33334 31.8139 4.90245 34.45 6.04068C37.0861 7.1789 39.3791 8.72229 41.3291 10.6708C43.2791 12.6208 44.8233 14.9139 45.9615 17.55C47.0997 20.1861 47.6681 23.0028 47.6666 26C47.6666 28.9972 47.0975 31.8139 45.9593 34.45C44.8211 37.0861 43.2777 39.3792 41.3291 41.3292C39.3791 43.2792 37.0861 44.8233 34.45 45.9615C31.8139 47.0997 28.9972 47.6681 26 47.6667Z" fill="white"/>
</svg>
